<?xml version="1.0" encoding="UTF-8"?>
<svg width="20px" height="20px" viewBox="0 0 20 20" version="1.1" xmlns="http://www.w3.org/2000/svg" xmlns:xlink="http://www.w3.org/1999/xlink">
    <!-- Generator: Sketch 49.1 (51147) - http://www.bohemiancoding.com/sketch -->
    <title>Group 5</title>
    <desc>Created with Sketch.</desc>
    <defs></defs>
    <g id="Page-1" stroke="none" stroke-width="1" fill="none" fill-rule="evenodd" stroke-linecap="square">
        <g id="作者視角" transform="translate(-311.000000, -93.000000)" stroke="#56CFA2">
            <g id="Group-5" transform="translate(311.000000, 93.000000)">
                <polygon id="Path-6" points="11.8857143 0.828571429 11.8857143 8.37142857 19.4285714 8.37142857 19.4285714 0.828571429"></polygon>
                <polyline id="Path-7" points="11.8857143 19.0571429 11.8857143 11.5142857 15.6571429 11.5142857 15.6571429 14.7469388 19.4285714 14.7469388 19.4285714 11.5142857"></polyline>
                <polygon id="Path-8" points="14.4 17.8 15.5314285 17.8 15.5314285 18.8193837 14.4 18.8193837"></polygon>
                <polygon id="Path-8" points="15.0285714 3.97142857 16.0479551 3.97142857 16.0479551 4.99081227 15.0285714 4.99081227"></polygon>
                <polygon id="Path-8" points="18.1714286 17.8 19.3028571 17.8 19.3028571 18.8193837 18.1714286 18.8193837"></polygon>
                <polygon id="Path-6" points="0.571428571 0.828571429 0.571428571 8.37142857 8.11428571 8.37142857 8.11428571 0.828571429"></polygon>
                <polygon id="Path-6" points="0.571428571 10.8857143 0.571428571 18.4285714 8.11428571 18.4285714 8.11428571 10.8857143"></polygon>
                <polygon id="Path-8" points="3.71428571 3.97142857 4.73366941 3.97142857 4.73366941 4.99081227 3.71428571 4.99081227"></polygon>
                <polygon id="Path-8" points="3.71428571 14.0285714 4.73366941 14.0285714 4.73366941 15.0479551 3.71428571 15.0479551"></polygon>
            </g>
        </g>
    </g>
</svg>